<svg width="61" height="61" viewBox="0 0 61 61" fill="none" xmlns="http://www.w3.org/2000/svg">
<path d="M40.0627 36.6839C48.788 36.6839 55.861 29.6397 55.861 20.9503C55.861 12.2608 48.788 5.21667 40.0627 5.21667C31.3377 5.21667 24.2647 12.2608 24.2647 20.9503C24.2647 24.9751 26.1017 27.9024 26.1017 27.9024L6.99699 46.9289C6.13971 47.7827 4.93954 50.0024 6.99699 52.0514L9.20136 54.2469C10.0586 54.9787 12.2139 56.0032 13.9775 54.2469L16.5492 51.6857C19.121 54.2469 22.0602 52.7834 23.1624 51.3197C24.9994 48.7584 22.795 46.1972 22.795 46.1972L23.5298 45.4654C27.0567 48.9779 30.143 46.9289 31.2452 45.4654C33.0822 42.9042 31.2452 40.3429 31.2452 40.3429C30.5105 38.8792 29.041 38.8792 30.8777 37.0499L33.0822 34.8544C34.8457 36.3179 38.4707 36.6839 40.0627 36.6839Z" stroke="#1473BB" stroke-width="3.75" stroke-linejoin="round"/>
<path d="M45.5742 20.9505C45.5742 23.9817 43.107 26.4389 40.0635 26.4389C37.0197 26.4389 34.5525 23.9817 34.5525 20.9505C34.5525 17.9193 37.0197 15.462 40.0635 15.462C43.107 15.462 45.5742 17.9193 45.5742 20.9505Z" stroke="#1473BB" stroke-width="3.75"/>
</svg>
